STARTFONT 2.1
FONT -Schumacher-Clean-Medium-R-Normal--12-120-75-75-C-60-ISO8859-7
SIZE 12 75 75
FONTBOUNDINGBOX 8 12 -2 -3
COMMENT "Generated by fontforge, http://fontforge.sourceforge.net"
COMMENT "AUTOMATICALLY GENERATED FILE. DO NOT EDIT!"
COMMENT "Generated with 'ucs2any.pl clR6x12.bdf ../../../fonts/util/map-ISO8859-1 ISO8859-1'"
COMMENT "from an ISO10646-1 encoded source BDF font."
COMMENT "ucs2any.pl by Markus Kuhn <mkuhn@acm.org>, 2000."
COMMENT "$Xorg: clR6x12.bdf,v 1.3 2000/08/18 15:17:40 xorgcvs Exp $"
COMMENT ""
COMMENT "Copyright 1989 Dale Schumacher, dal@syntel.mn.org"
COMMENT "399 Beacon Ave."
COMMENT "St. Paul, MN  55104-3527"
COMMENT ""
COMMENT "Permission to use, copy, modify, and distribute this software and"
COMMENT "its documentation for any purpose and without fee is hereby"
COMMENT "granted, provided that the above copyright notice appear in all"
COMMENT "copies and that both that copyright notice and this permission"
COMMENT "notice appear in supporting documentation, and that the name of"
COMMENT "Dale Schumacher not be used in advertising or publicity pertaining to"
COMMENT "distribution of the software without specific, written prior"
COMMENT "permission.  Dale Schumacher makes no representations about the"
COMMENT "suitability of this software for any purpose.  It is provided "as"
COMMENT "is" without express or implied warranty."
COMMENT ""
COMMENT ""
COMMENT "Modified by Robert Brady, <rwb197@ecs.soton.ac.uk>"
COMMENT ""
STARTPROPERTIES 21
FONTNAME_REGISTRY ""
FOUNDRY "Schumacher"
FAMILY_NAME "Clean"
WEIGHT_NAME "Medium"
SLANT "R"
SETWIDTH_NAME "Normal"
ADD_STYLE_NAME ""
PIXEL_SIZE 12
POINT_SIZE 120
RESOLUTION_X 75
RESOLUTION_Y 75
SPACING "C"
AVERAGE_WIDTH 60
CHARSET_REGISTRY "ISO8859"
CHARSET_ENCODING "7"
FONT_ASCENT 9
FONT_DESCENT 3
DEFAULT_CHAR 0
COPYRIGHT "Copyright 1989 Dale Schumacher, 1999 Robert Brady."
CAP_HEIGHT 8
X_HEIGHT 5
ENDPROPERTIES
CHARS 223
STARTCHAR uni0000
ENCODING 0
SWIDTH 480 0
DWIDTH 6 0
BBX 5 7 0 0
BITMAP
A8
00
88
00
88
00
A8
ENDCHAR
STARTCHAR uni0001
ENCODING 1
SWIDTH 480 0
DWIDTH 6 0
BBX 5 5 0 0
BITMAP
20
70
F8
70
20
ENDCHAR
STARTCHAR uni0002
ENCODING 2
SWIDTH 480 0
DWIDTH 6 0
BBX 6 12 0 -3
BITMAP
A8
54
A8
54
A8
54
A8
54
A8
54
A8
54
ENDCHAR
STARTCHAR uni0003
ENCODING 3
SWIDTH 480 0
DWIDTH 6 0
BBX 6 9 0 -1
BITMAP
A0
A0
E0
A0
BC
08
08
08
08
ENDCHAR
STARTCHAR uni0004
ENCODING 4
SWIDTH 480 0
DWIDTH 6 0
BBX 6 8 0 0
BITMAP
E0
80
C0
9C
90
1C
10
10
ENDCHAR
STARTCHAR uni0005
ENCODING 5
SWIDTH 480 0
DWIDTH 6 0
BBX 6 8 0 0
BITMAP
60
80
80
98
74
18
14
14
ENDCHAR
STARTCHAR uni0006
ENCODING 6
SWIDTH 480 0
DWIDTH 6 0
BBX 6 8 0 0
BITMAP
80
80
80
9C
F0
18
10
10
ENDCHAR
STARTCHAR uni0007
ENCODING 7
SWIDTH 480 0
DWIDTH 6 0
BBX 4 4 1 4
BITMAP
60
90
90
60
ENDCHAR
STARTCHAR uni0008
ENCODING 8
SWIDTH 480 0
DWIDTH 6 0
BBX 5 7 0 0
BITMAP
20
20
F8
20
20
00
F8
ENDCHAR
STARTCHAR uni0009
ENCODING 9
SWIDTH 480 0
DWIDTH 6 0
BBX 6 9 0 0
BITMAP
A0
E0
E0
E0
B0
10
10
10
1C
ENDCHAR
STARTCHAR uni000A
ENCODING 10
SWIDTH 480 0
DWIDTH 6 0
BBX 6 8 0 0
BITMAP
A0
A0
A0
5C
48
08
08
08
ENDCHAR
STARTCHAR uni000B
ENCODING 11
SWIDTH 480 0
DWIDTH 6 0
BBX 3 7 0 2
BITMAP
20
20
20
20
20
20
E0
ENDCHAR
STARTCHAR uni000C
ENCODING 12
SWIDTH 480 0
DWIDTH 6 0
BBX 3 6 0 -3
BITMAP
E0
20
20
20
20
20
ENDCHAR
STARTCHAR uni000D
ENCODING 13
SWIDTH 480 0
DWIDTH 6 0
BBX 4 6 2 -3
BITMAP
FC
80
80
80
80
80
ENDCHAR
STARTCHAR uni000E
ENCODING 14
SWIDTH 480 0
DWIDTH 6 0
BBX 4 7 2 2
BITMAP
80
80
80
80
80
80
FC
ENDCHAR
STARTCHAR uni000F
ENCODING 15
SWIDTH 480 0
DWIDTH 6 0
BBX 6 12 0 -3
BITMAP
20
20
20
20
20
20
FF
20
20
20
20
20
ENDCHAR
STARTCHAR uni0010
ENCODING 16
SWIDTH 480 0
DWIDTH 6 0
BBX 6 1 0 8
BITMAP
FC
ENDCHAR
STARTCHAR uni0011
ENCODING 17
SWIDTH 480 0
DWIDTH 6 0
BBX 6 1 0 5
BITMAP
FC
ENDCHAR
STARTCHAR uni0012
ENCODING 18
SWIDTH 480 0
DWIDTH 6 0
BBX 6 1 0 2
BITMAP
FC
ENDCHAR
STARTCHAR uni0013
ENCODING 19
SWIDTH 480 0
DWIDTH 6 0
BBX 6 1 0 0
BITMAP
FC
ENDCHAR
STARTCHAR uni0014
ENCODING 20
SWIDTH 480 0
DWIDTH 6 0
BBX 6 1 0 -3
BITMAP
FC
ENDCHAR
STARTCHAR uni0015
ENCODING 21
SWIDTH 480 0
DWIDTH 6 0
BBX 4 12 2 -3
BITMAP
80
80
80
80
80
80
FC
80
80
80
80
80
ENDCHAR
STARTCHAR uni0016
ENCODING 22
SWIDTH 480 0
DWIDTH 6 0
BBX 3 12 0 -3
BITMAP
20
20
20
20
20
20
E0
20
20
20
20
20
ENDCHAR
STARTCHAR uni0017
ENCODING 23
SWIDTH 480 0
DWIDTH 6 0
BBX 6 7 0 2
BITMAP
20
20
20
20
20
20
FF
ENDCHAR
STARTCHAR uni0018
ENCODING 24
SWIDTH 480 0
DWIDTH 6 0
BBX 6 6 0 -3
BITMAP
FF
20
20
20
20
20
ENDCHAR
STARTCHAR uni0019
ENCODING 25
SWIDTH 480 0
DWIDTH 6 0
BBX 1 12 2 -3
BITMAP
80
80
80
80
80
80
80
80
80
80
80
80
ENDCHAR
STARTCHAR uni001A
ENCODING 26
SWIDTH 480 0
DWIDTH 6 0
BBX 5 7 0 0
BITMAP
18
60
80
60
18
00
F8
ENDCHAR
STARTCHAR uni001B
ENCODING 27
SWIDTH 480 0
DWIDTH 6 0
BBX 5 7 0 0
BITMAP
C0
30
08
30
C0
00
F8
ENDCHAR
STARTCHAR uni001C
ENCODING 28
SWIDTH 480 0
DWIDTH 6 0
BBX 5 5 0 0
BITMAP
F8
88
88
88
88
ENDCHAR
STARTCHAR uni001D
ENCODING 29
SWIDTH 480 0
DWIDTH 6 0
BBX 5 7 0 0
BITMAP
10
10
F8
20
F8
40
40
ENDCHAR
STARTCHAR uni001E
ENCODING 30
SWIDTH 480 0
DWIDTH 6 0
BBX 5 8 0 0
BITMAP
30
48
40
E0
40
40
48
B0
ENDCHAR
STARTCHAR uni001F
ENCODING 31
SWIDTH 480 0
DWIDTH 6 0
BBX 2 1 2 2
BITMAP
C0
ENDCHAR
STARTCHAR space
ENCODING 32
SWIDTH 480 0
DWIDTH 6 0
BBX 1 1 5 -3
BITMAP
00
ENDCHAR
STARTCHAR exclam
ENCODING 33
SWIDTH 480 0
DWIDTH 6 0
BBX 1 8 2 0
BITMAP
80
80
80
80
80
80
00
80
ENDCHAR
STARTCHAR quotedbl
ENCODING 34
SWIDTH 480 0
DWIDTH 6 0
BBX 3 3 1 5
BITMAP
A0
A0
A0
ENDCHAR
STARTCHAR numbersign
ENCODING 35
SWIDTH 480 0
DWIDTH 6 0
BBX 5 7 0 0
BITMAP
50
50
F8
50
F8
50
50
ENDCHAR
STARTCHAR dollar
ENCODING 36
SWIDTH 480 0
DWIDTH 6 0
BBX 5 7 0 0
BITMAP
20
78
A0
70
28
F0
20
ENDCHAR
STARTCHAR percent
ENCODING 37
SWIDTH 480 0
DWIDTH 6 0
BBX 5 7 0 0
BITMAP
C0
C8
10
20
40
98
18
ENDCHAR
STARTCHAR ampersand
ENCODING 38
SWIDTH 480 0
DWIDTH 6 0
BBX 5 7 0 0
BITMAP
70
80
80
40
A8
90
68
ENDCHAR
STARTCHAR quotesingle
ENCODING 39
SWIDTH 480 0
DWIDTH 6 0
BBX 1 3 2 5
BITMAP
80
80
80
ENDCHAR
STARTCHAR parenleft
ENCODING 40
SWIDTH 480 0
DWIDTH 6 0
BBX 3 11 2 -2
BITMAP
20
40
40
80
80
80
80
80
40
40
20
ENDCHAR
STARTCHAR parenright
ENCODING 41
SWIDTH 480 0
DWIDTH 6 0
BBX 3 11 1 -2
BITMAP
80
40
40
20
20
20
20
20
40
40
80
ENDCHAR
STARTCHAR asterisk
ENCODING 42
SWIDTH 480 0
DWIDTH 6 0
BBX 5 5 0 1
BITMAP
20
A8
70
A8
20
ENDCHAR
STARTCHAR plus
ENCODING 43
SWIDTH 480 0
DWIDTH 6 0
BBX 5 5 0 1
BITMAP
20
20
F8
20
20
ENDCHAR
STARTCHAR comma
ENCODING 44
SWIDTH 480 0
DWIDTH 6 0
BBX 3 4 1 -2
BITMAP
60
60
40
80
ENDCHAR
STARTCHAR hyphen
ENCODING 45
SWIDTH 480 0
DWIDTH 6 0
BBX 5 1 0 3
BITMAP
F8
ENDCHAR
STARTCHAR period
ENCODING 46
SWIDTH 480 0
DWIDTH 6 0
BBX 2 2 2 0
BITMAP
C0
C0
ENDCHAR
STARTCHAR slash
ENCODING 47
SWIDTH 480 0
DWIDTH 6 0
BBX 5 10 0 -1
BITMAP
08
08
10
10
20
20
40
40
80
80
ENDCHAR
STARTCHAR zero
ENCODING 48
SWIDTH 480 0
DWIDTH 6 0
BBX 5 8 0 0
BITMAP
70
88
98
A8
C8
88
88
70
ENDCHAR
STARTCHAR one
ENCODING 49
SWIDTH 480 0
DWIDTH 6 0
BBX 2 8 2 0
BITMAP
40
C0
40
40
40
40
40
40
ENDCHAR
STARTCHAR two
ENCODING 50
SWIDTH 480 0
DWIDTH 6 0
BBX 5 8 0 0
BITMAP
70
88
08
10
20
40
80
F8
ENDCHAR
STARTCHAR three
ENCODING 51
SWIDTH 480 0
DWIDTH 6 0
BBX 5 8 0 0
BITMAP
70
88
08
30
08
08
88
70
ENDCHAR
STARTCHAR four
ENCODING 52
SWIDTH 480 0
DWIDTH 6 0
BBX 5 8 0 0
BITMAP
10
30
30
50
50
F8
10
38
ENDCHAR
STARTCHAR five
ENCODING 53
SWIDTH 480 0
DWIDTH 6 0
BBX 5 8 0 0
BITMAP
F8
80
80
F0
08
08
88
70
ENDCHAR
STARTCHAR six
ENCODING 54
SWIDTH 480 0
DWIDTH 6 0
BBX 5 8 0 0
BITMAP
30
40
80
F0
88
88
88
70
ENDCHAR
STARTCHAR seven
ENCODING 55
SWIDTH 480 0
DWIDTH 6 0
BBX 5 8 0 0
BITMAP
F8
88
08
08
10
10
20
20
ENDCHAR
STARTCHAR eight
ENCODING 56
SWIDTH 480 0
DWIDTH 6 0
BBX 5 8 0 0
BITMAP
70
88
88
70
88
88
88
70
ENDCHAR
STARTCHAR nine
ENCODING 57
SWIDTH 480 0
DWIDTH 6 0
BBX 5 8 0 0
BITMAP
70
88
88
88
78
08
10
60
ENDCHAR
STARTCHAR colon
ENCODING 58
SWIDTH 480 0
DWIDTH 6 0
BBX 2 6 2 0
BITMAP
C0
C0
00
00
C0
C0
ENDCHAR
STARTCHAR semicolon
ENCODING 59
SWIDTH 480 0
DWIDTH 6 0
BBX 3 8 1 -2
BITMAP
60
60
00
00
60
60
40
80
ENDCHAR
STARTCHAR less
ENCODING 60
SWIDTH 480 0
DWIDTH 6 0
BBX 6 5 0 1
BITMAP
0C
30
C0
30
0C
ENDCHAR
STARTCHAR equal
ENCODING 61
SWIDTH 480 0
DWIDTH 6 0
BBX 5 3 0 2
BITMAP
F8
00
F8
ENDCHAR
STARTCHAR greater
ENCODING 62
SWIDTH 480 0
DWIDTH 6 0
BBX 6 5 0 1
BITMAP
C0
30
0C
30
C0
ENDCHAR
STARTCHAR question
ENCODING 63
SWIDTH 480 0
DWIDTH 6 0
BBX 5 8 0 0
BITMAP
70
88
08
10
20
20
00
20
ENDCHAR
STARTCHAR at
ENCODING 64
SWIDTH 480 0
DWIDTH 6 0
BBX 5 7 0 0
BITMAP
70
88
B8
B8
B0
80
70
ENDCHAR
STARTCHAR A
ENCODING 65
SWIDTH 480 0
DWIDTH 6 0
BBX 5 7 0 0
BITMAP
20
50
88
88
F8
88
88
ENDCHAR
STARTCHAR B
ENCODING 66
SWIDTH 480 0
DWIDTH 6 0
BBX 5 7 0 0
BITMAP
F0
88
88
F0
88
88
F0
ENDCHAR
STARTCHAR C
ENCODING 67
SWIDTH 480 0
DWIDTH 6 0
BBX 5 7 0 0
BITMAP
70
88
80
80
80
88
70
ENDCHAR
STARTCHAR D
ENCODING 68
SWIDTH 480 0
DWIDTH 6 0
BBX 5 7 0 0
BITMAP
E0
90
88
88
88
90
E0
ENDCHAR
STARTCHAR E
ENCODING 69
SWIDTH 480 0
DWIDTH 6 0
BBX 5 7 0 0
BITMAP
F8
80
80
F0
80
80
F8
ENDCHAR
STARTCHAR F
ENCODING 70
SWIDTH 480 0
DWIDTH 6 0
BBX 5 7 0 0
BITMAP
F8
80
80
F0
80
80
80
ENDCHAR
STARTCHAR G
ENCODING 71
SWIDTH 480 0
DWIDTH 6 0
BBX 5 7 0 0
BITMAP
70
88
80
98
88
88
78
ENDCHAR
STARTCHAR H
ENCODING 72
SWIDTH 480 0
DWIDTH 6 0
BBX 5 7 0 0
BITMAP
88
88
88
F8
88
88
88
ENDCHAR
STARTCHAR I
ENCODING 73
SWIDTH 480 0
DWIDTH 6 0
BBX 5 7 0 0
BITMAP
F8
20
20
20
20
20
F8
ENDCHAR
STARTCHAR J
ENCODING 74
SWIDTH 480 0
DWIDTH 6 0
BBX 5 7 0 0
BITMAP
38
08
08
08
88
88
70
ENDCHAR
STARTCHAR K
ENCODING 75
SWIDTH 480 0
DWIDTH 6 0
BBX 5 7 0 0
BITMAP
88
90
A0
C0
A0
90
88
ENDCHAR
STARTCHAR L
ENCODING 76
SWIDTH 480 0
DWIDTH 6 0
BBX 5 7 0 0
BITMAP
80
80
80
80
80
80
F8
ENDCHAR
STARTCHAR M
ENCODING 77
SWIDTH 480 0
DWIDTH 6 0
BBX 5 7 0 0
BITMAP
88
D8
A8
A8
88
88
88
ENDCHAR
STARTCHAR N
ENCODING 78
SWIDTH 480 0
DWIDTH 6 0
BBX 5 7 0 0
BITMAP
88
C8
C8
A8
98
98
88
ENDCHAR
STARTCHAR O
ENCODING 79
SWIDTH 480 0
DWIDTH 6 0
BBX 5 7 0 0
BITMAP
70
88
88
88
88
88
70
ENDCHAR
STARTCHAR P
ENCODING 80
SWIDTH 480 0
DWIDTH 6 0
BBX 5 7 0 0
BITMAP
F0
88
88
F0
80
80
80
ENDCHAR
STARTCHAR Q
ENCODING 81
SWIDTH 480 0
DWIDTH 6 0
BBX 5 8 0 -1
BITMAP
70
88
88
88
88
88
70
18
ENDCHAR
STARTCHAR R
ENCODING 82
SWIDTH 480 0
DWIDTH 6 0
BBX 5 7 0 0
BITMAP
F0
88
88
F0
A0
90
88
ENDCHAR
STARTCHAR S
ENCODING 83
SWIDTH 480 0
DWIDTH 6 0
BBX 5 7 0 0
BITMAP
70
88
80
70
08
88
70
ENDCHAR
STARTCHAR T
ENCODING 84
SWIDTH 480 0
DWIDTH 6 0
BBX 5 7 0 0
BITMAP
F8
20
20
20
20
20
20
ENDCHAR
STARTCHAR U
ENCODING 85
SWIDTH 480 0
DWIDTH 6 0
BBX 5 7 0 0
BITMAP
88
88
88
88
88
88
70
ENDCHAR
STARTCHAR V
ENCODING 86
SWIDTH 480 0
DWIDTH 6 0
BBX 5 7 0 0
BITMAP
88
88
88
50
50
20
20
ENDCHAR
STARTCHAR W
ENCODING 87
SWIDTH 480 0
DWIDTH 6 0
BBX 5 7 0 0
BITMAP
88
88
88
A8
A8
D8
88
ENDCHAR
STARTCHAR X
ENCODING 88
SWIDTH 480 0
DWIDTH 6 0
BBX 5 7 0 0
BITMAP
88
88
50
20
50
88
88
ENDCHAR
STARTCHAR Y
ENCODING 89
SWIDTH 480 0
DWIDTH 6 0
BBX 5 7 0 0
BITMAP
88
88
50
20
20
20
20
ENDCHAR
STARTCHAR Z
ENCODING 90
SWIDTH 480 0
DWIDTH 6 0
BBX 5 7 0 0
BITMAP
F8
08
10
20
40
80
F8
ENDCHAR
STARTCHAR bracketleft
ENCODING 91
SWIDTH 480 0
DWIDTH 6 0
BBX 3 11 2 -2
BITMAP
E0
80
80
80
80
80
80
80
80
80
E0
ENDCHAR
STARTCHAR backslash
ENCODING 92
SWIDTH 480 0
DWIDTH 6 0
BBX 5 10 0 -1
BITMAP
80
80
40
40
20
20
10
10
08
08
ENDCHAR
STARTCHAR bracketright
ENCODING 93
SWIDTH 480 0
DWIDTH 6 0
BBX 3 11 1 -2
BITMAP
E0
20
20
20
20
20
20
20
20
20
E0
ENDCHAR
STARTCHAR asciicircum
ENCODING 94
SWIDTH 480 0
DWIDTH 6 0
BBX 5 3 0 5
BITMAP
20
50
88
ENDCHAR
STARTCHAR underscore
ENCODING 95
SWIDTH 480 0
DWIDTH 6 0
BBX 6 1 0 -1
BITMAP
FC
ENDCHAR
STARTCHAR grave
ENCODING 96
SWIDTH 480 0
DWIDTH 6 0
BBX 2 2 2 6
BITMAP
80
40
ENDCHAR
STARTCHAR a
ENCODING 97
SWIDTH 480 0
DWIDTH 6 0
BBX 5 5 0 0
BITMAP
78
88
88
98
68
ENDCHAR
STARTCHAR b
ENCODING 98
SWIDTH 480 0
DWIDTH 6 0
BBX 5 8 0 0
BITMAP
80
80
80
F0
88
88
88
F0
ENDCHAR
STARTCHAR c
ENCODING 99
SWIDTH 480 0
DWIDTH 6 0
BBX 5 5 0 0
BITMAP
78
80
80
80
78
ENDCHAR
STARTCHAR d
ENCODING 100
SWIDTH 480 0
DWIDTH 6 0
BBX 5 8 0 0
BITMAP
08
08
08
78
88
88
88
78
ENDCHAR
STARTCHAR e
ENCODING 101
SWIDTH 480 0
DWIDTH 6 0
BBX 5 5 0 0
BITMAP
70
88
F8
80
70
ENDCHAR
STARTCHAR f
ENCODING 102
SWIDTH 480 0
DWIDTH 6 0
BBX 5 8 0 0
BITMAP
38
40
40
F0
40
40
40
40
ENDCHAR
STARTCHAR g
ENCODING 103
SWIDTH 480 0
DWIDTH 6 0
BBX 5 8 0 -3
BITMAP
78
88
88
88
78
08
08
70
ENDCHAR
STARTCHAR h
ENCODING 104
SWIDTH 480 0
DWIDTH 6 0
BBX 5 8 0 0
BITMAP
80
80
80
F0
88
88
88
88
ENDCHAR
STARTCHAR i
ENCODING 105
SWIDTH 480 0
DWIDTH 6 0
BBX 3 8 1 0
BITMAP
40
40
00
C0
40
40
40
E0
ENDCHAR
STARTCHAR j
ENCODING 106
SWIDTH 480 0
DWIDTH 6 0
BBX 4 11 1 -3
BITMAP
10
10
00
70
10
10
10
10
10
10
E0
ENDCHAR
STARTCHAR k
ENCODING 107
SWIDTH 480 0
DWIDTH 6 0
BBX 4 8 1 0
BITMAP
80
80
80
90
A0
C0
A0
90
ENDCHAR
STARTCHAR l
ENCODING 108
SWIDTH 480 0
DWIDTH 6 0
BBX 3 8 1 0
BITMAP
C0
40
40
40
40
40
40
E0
ENDCHAR
STARTCHAR m
ENCODING 109
SWIDTH 480 0
DWIDTH 6 0
BBX 5 5 0 0
BITMAP
D0
A8
A8
A8
88
ENDCHAR
STARTCHAR n
ENCODING 110
SWIDTH 480 0
DWIDTH 6 0
BBX 5 5 0 0
BITMAP
B0
C8
88
88
88
ENDCHAR
STARTCHAR o
ENCODING 111
SWIDTH 480 0
DWIDTH 6 0
BBX 5 5 0 0
BITMAP
70
88
88
88
70
ENDCHAR
STARTCHAR p
ENCODING 112
SWIDTH 480 0
DWIDTH 6 0
BBX 5 8 0 -3
BITMAP
F0
88
88
88
F0
80
80
80
ENDCHAR
STARTCHAR q
ENCODING 113
SWIDTH 480 0
DWIDTH 6 0
BBX 5 8 0 -3
BITMAP
78
88
88
88
78
08
08
08
ENDCHAR
STARTCHAR r
ENCODING 114
SWIDTH 480 0
DWIDTH 6 0
BBX 4 5 1 0
BITMAP
B0
C0
80
80
80
ENDCHAR
STARTCHAR s
ENCODING 115
SWIDTH 480 0
DWIDTH 6 0
BBX 5 5 0 0
BITMAP
78
80
70
08
F0
ENDCHAR
STARTCHAR t
ENCODING 116
SWIDTH 480 0
DWIDTH 6 0
BBX 4 8 1 0
BITMAP
40
40
40
E0
40
40
40
30
ENDCHAR
STARTCHAR u
ENCODING 117
SWIDTH 480 0
DWIDTH 6 0
BBX 5 5 0 0
BITMAP
88
88
88
98
68
ENDCHAR
STARTCHAR v
ENCODING 118
SWIDTH 480 0
DWIDTH 6 0
BBX 5 5 0 0
BITMAP
D8
50
50
20
20
ENDCHAR
STARTCHAR w
ENCODING 119
SWIDTH 480 0
DWIDTH 6 0
BBX 5 5 0 0
BITMAP
88
A8
A8
A8
50
ENDCHAR
STARTCHAR x
ENCODING 120
SWIDTH 480 0
DWIDTH 6 0
BBX 5 5 0 0
BITMAP
88
50
20
50
88
ENDCHAR
STARTCHAR y
ENCODING 121
SWIDTH 480 0
DWIDTH 6 0
BBX 5 8 0 -3
BITMAP
88
88
88
88
78
08
08
70
ENDCHAR
STARTCHAR z
ENCODING 122
SWIDTH 480 0
DWIDTH 6 0
BBX 5 5 0 0
BITMAP
F8
10
20
40
F8
ENDCHAR
STARTCHAR braceleft
ENCODING 123
SWIDTH 480 0
DWIDTH 6 0
BBX 3 11 2 -2
BITMAP
20
40
40
40
40
80
40
40
40
40
20
ENDCHAR
STARTCHAR bar
ENCODING 124
SWIDTH 480 0
DWIDTH 6 0
BBX 1 11 2 -2
BITMAP
80
80
80
80
80
80
80
80
80
80
80
ENDCHAR
STARTCHAR braceright
ENCODING 125
SWIDTH 480 0
DWIDTH 6 0
BBX 3 11 1 -2
BITMAP
80
40
40
40
40
20
40
40
40
40
80
ENDCHAR
STARTCHAR asciitilde
ENCODING 126
SWIDTH 480 0
DWIDTH 6 0
BBX 5 3 0 2
BITMAP
40
A8
10
ENDCHAR
STARTCHAR uni00A0
ENCODING 160
SWIDTH 480 0
DWIDTH 6 0
BBX 1 1 5 -3
BITMAP
00
ENDCHAR
STARTCHAR quoteleft
ENCODING 161
SWIDTH 1000 0
DWIDTH 6 0
BBX 2 3 0 5
BITMAP
40
40
80
ENDCHAR
STARTCHAR quoteright
ENCODING 162
SWIDTH 480 0
DWIDTH 6 0
BBX 1 2 1 6
BITMAP
80
80
ENDCHAR
STARTCHAR sterling
ENCODING 163
SWIDTH 480 0
DWIDTH 6 0
BBX 5 8 0 0
BITMAP
30
48
40
E0
40
40
48
B0
ENDCHAR
STARTCHAR Euro
ENCODING 164
SWIDTH 480 0
DWIDTH 6 0
BBX 6 7 -1 0
BITMAP
38
44
F0
40
F0
44
38
ENDCHAR
STARTCHAR uni20AF
ENCODING 165
SWIDTH 480 0
DWIDTH 6 0
BBX 5 7 0 0
BITMAP
88
50
20
70
20
70
20
ENDCHAR
STARTCHAR brokenbar
ENCODING 166
SWIDTH 480 0
DWIDTH 6 0
BBX 1 7 2 0
BITMAP
80
80
80
00
80
80
80
ENDCHAR
STARTCHAR section
ENCODING 167
SWIDTH 480 0
DWIDTH 6 0
BBX 4 11 1 -2
BITMAP
60
90
80
60
90
90
90
60
10
90
60
ENDCHAR
STARTCHAR dieresis
ENCODING 168
SWIDTH 480 0
DWIDTH 6 0
BBX 3 2 1 6
BITMAP
A0
A0
ENDCHAR
STARTCHAR copyright
ENCODING 169
SWIDTH 480 0
DWIDTH 6 0
BBX 6 8 0 0
BITMAP
78
84
B4
A4
A4
B4
84
78
ENDCHAR
STARTCHAR uni037A
ENCODING 170
SWIDTH 480 0
DWIDTH 6 0
BBX 4 7 1 2
BITMAP
60
10
70
90
70
00
F0
ENDCHAR
STARTCHAR guillemotleft
ENCODING 171
SWIDTH 480 0
DWIDTH 6 0
BBX 5 5 0 1
BITMAP
28
50
A0
50
28
ENDCHAR
STARTCHAR logicalnot
ENCODING 172
SWIDTH 480 0
DWIDTH 6 0
BBX 4 2 1 2
BITMAP
F0
10
ENDCHAR
STARTCHAR uni00AD
ENCODING 173
SWIDTH 480 0
DWIDTH 6 0
BBX 4 1 1 3
BITMAP
F0
ENDCHAR
STARTCHAR NameMe.174
ENCODING 174
SWIDTH 480 0
DWIDTH 6 0
BBX 6 8 0 0
BITMAP
78
84
B4
AC
B4
AC
84
78
ENDCHAR
STARTCHAR uni2015
ENCODING 175
SWIDTH 480 0
DWIDTH 6 0
BBX 5 1 0 6
BITMAP
F8
ENDCHAR
STARTCHAR degree
ENCODING 176
SWIDTH 480 0
DWIDTH 6 0
BBX 4 4 1 4
BITMAP
60
90
90
60
ENDCHAR
STARTCHAR plusminus
ENCODING 177
SWIDTH 480 0
DWIDTH 6 0
BBX 5 7 0 0
BITMAP
20
20
F8
20
20
00
F8
ENDCHAR
STARTCHAR uni00B2
ENCODING 178
SWIDTH 480 0
DWIDTH 6 0
BBX 3 5 1 4
BITMAP
C0
20
40
80
E0
ENDCHAR
STARTCHAR uni00B3
ENCODING 179
SWIDTH 480 0
DWIDTH 6 0
BBX 3 5 1 4
BITMAP
C0
20
40
20
C0
ENDCHAR
STARTCHAR tonos
ENCODING 180
SWIDTH 480 0
DWIDTH 6 0
BBX 2 2 2 6
BITMAP
40
80
ENDCHAR
STARTCHAR dieresistonos
ENCODING 181
SWIDTH 480 0
DWIDTH 6 0
BBX 3 3 0 6
BITMAP
40
00
A0
ENDCHAR
STARTCHAR Alphatonos
ENCODING 182
SWIDTH 480 0
DWIDTH 6 0
BBX 6 8 -1 0
BITMAP
40
90
28
44
44
7C
44
44
ENDCHAR
STARTCHAR periodcentered
ENCODING 183
SWIDTH 480 0
DWIDTH 6 0
BBX 2 1 2 2
BITMAP
C0
ENDCHAR
STARTCHAR Epsilontonos
ENCODING 184
SWIDTH 480 0
DWIDTH 6 0
BBX 6 8 -1 0
BITMAP
40
BC
20
20
38
20
20
3C
ENDCHAR
STARTCHAR Etatonos
ENCODING 185
SWIDTH 480 0
DWIDTH 6 0
BBX 7 8 -2 0
BITMAP
40
A2
22
22
3E
22
22
22
ENDCHAR
STARTCHAR Iotatonos
ENCODING 186
SWIDTH 480 0
DWIDTH 6 0
BBX 4 8 -1 0
BITMAP
40
90
10
10
10
10
10
10
ENDCHAR
STARTCHAR guillemotright
ENCODING 187
SWIDTH 480 0
DWIDTH 6 0
BBX 5 5 0 1
BITMAP
A0
50
28
50
A0
ENDCHAR
STARTCHAR Omicrontonos
ENCODING 188
SWIDTH 480 0
DWIDTH 6 0
BBX 7 8 -2 0
BITMAP
40
9C
22
22
22
22
22
1C
ENDCHAR
STARTCHAR onehalf
ENCODING 189
SWIDTH 480 0
DWIDTH 6 0
BBX 4 8 1 0
BITMAP
80
80
80
E0
10
20
40
70
ENDCHAR
STARTCHAR Upsilontonos
ENCODING 190
SWIDTH 480 0
DWIDTH 6 0
BBX 5 8 0 0
BITMAP
C0
40
20
C8
10
28
38
08
ENDCHAR
STARTCHAR Omegatonos
ENCODING 191
SWIDTH 480 0
DWIDTH 6 0
BBX 6 9 -1 0
BITMAP
40
80
38
44
44
44
44
28
6C
ENDCHAR
STARTCHAR iotadieresistonos
ENCODING 192
SWIDTH 480 0
DWIDTH 6 0
BBX 5 9 0 0
BITMAP
40
20
00
70
88
88
F8
88
88
ENDCHAR
STARTCHAR Alpha
ENCODING 193
SWIDTH 480 0
DWIDTH 6 0
BBX 5 7 0 0
BITMAP
20
50
88
88
F8
88
88
ENDCHAR
STARTCHAR Beta
ENCODING 194
SWIDTH 480 0
DWIDTH 6 0
BBX 5 7 0 0
BITMAP
F0
88
88
F0
88
88
F0
ENDCHAR
STARTCHAR Gamma
ENCODING 195
SWIDTH 480 0
DWIDTH 6 0
BBX 5 7 0 0
BITMAP
F8
80
80
80
80
80
80
ENDCHAR
STARTCHAR uni0394
ENCODING 196
SWIDTH 480 0
DWIDTH 6 0
BBX 5 7 0 0
BITMAP
20
50
88
88
88
88
F8
ENDCHAR
STARTCHAR Epsilon
ENCODING 197
SWIDTH 480 0
DWIDTH 6 0
BBX 5 7 0 0
BITMAP
F8
80
80
F0
80
80
F8
ENDCHAR
STARTCHAR Zeta
ENCODING 198
SWIDTH 480 0
DWIDTH 6 0
BBX 5 7 0 0
BITMAP
F8
08
10
20
40
80
F8
ENDCHAR
STARTCHAR Eta
ENCODING 199
SWIDTH 480 0
DWIDTH 6 0
BBX 5 7 0 0
BITMAP
88
88
88
F8
88
88
88
ENDCHAR
STARTCHAR Theta
ENCODING 200
SWIDTH 480 0
DWIDTH 6 0
BBX 5 7 0 0
BITMAP
70
88
88
F8
88
88
70
ENDCHAR
STARTCHAR Iota
ENCODING 201
SWIDTH 480 0
DWIDTH 6 0
BBX 1 7 2 0
BITMAP
80
80
80
80
80
80
80
ENDCHAR
STARTCHAR Kappa
ENCODING 202
SWIDTH 480 0
DWIDTH 6 0
BBX 5 7 0 0
BITMAP
88
90
A0
C0
A0
90
88
ENDCHAR
STARTCHAR Lambda
ENCODING 203
SWIDTH 480 0
DWIDTH 6 0
BBX 5 7 0 0
BITMAP
20
50
88
88
88
88
88
ENDCHAR
STARTCHAR Mu
ENCODING 204
SWIDTH 480 0
DWIDTH 6 0
BBX 5 7 0 0
BITMAP
88
D8
A8
A8
88
88
88
ENDCHAR
STARTCHAR Nu
ENCODING 205
SWIDTH 480 0
DWIDTH 6 0
BBX 5 7 0 0
BITMAP
88
C8
C8
A8
98
98
88
ENDCHAR
STARTCHAR Xi
ENCODING 206
SWIDTH 480 0
DWIDTH 6 0
BBX 5 7 0 0
BITMAP
F8
00
00
70
00
00
F8
ENDCHAR
STARTCHAR Omicron
ENCODING 207
SWIDTH 480 0
DWIDTH 6 0
BBX 5 7 0 0
BITMAP
70
88
88
88
88
88
70
ENDCHAR
STARTCHAR Pi
ENCODING 208
SWIDTH 480 0
DWIDTH 6 0
BBX 5 7 0 0
BITMAP
F8
88
88
88
88
88
88
ENDCHAR
STARTCHAR Rho
ENCODING 209
SWIDTH 480 0
DWIDTH 6 0
BBX 5 7 0 0
BITMAP
F0
88
88
F0
80
80
80
ENDCHAR
STARTCHAR NameMe.210
ENCODING 210
SWIDTH 480 0
DWIDTH 6 0
BBX 1 1 4 0
BITMAP
00
ENDCHAR
STARTCHAR Sigma
ENCODING 211
SWIDTH 480 0
DWIDTH 6 0
BBX 5 7 0 0
BITMAP
F8
80
40
20
40
80
F8
ENDCHAR
STARTCHAR Tau
ENCODING 212
SWIDTH 480 0
DWIDTH 6 0
BBX 5 7 0 0
BITMAP
F8
20
20
20
20
20
20
ENDCHAR
STARTCHAR Upsilon
ENCODING 213
SWIDTH 480 0
DWIDTH 6 0
BBX 5 7 0 0
BITMAP
88
88
50
20
20
20
20
ENDCHAR
STARTCHAR Phi
ENCODING 214
SWIDTH 480 0
DWIDTH 6 0
BBX 5 7 0 0
BITMAP
70
A8
A8
A8
A8
70
20
ENDCHAR
STARTCHAR Chi
ENCODING 215
SWIDTH 480 0
DWIDTH 6 0
BBX 5 7 0 0
BITMAP
88
88
50
20
50
88
88
ENDCHAR
STARTCHAR Psi
ENCODING 216
SWIDTH 480 0
DWIDTH 6 0
BBX 5 7 0 0
BITMAP
A8
A8
A8
A8
A8
70
20
ENDCHAR
STARTCHAR uni03A9
ENCODING 217
SWIDTH 480 0
DWIDTH 6 0
BBX 5 7 0 0
BITMAP
70
88
88
88
88
50
D8
ENDCHAR
STARTCHAR Iotadieresis
ENCODING 218
SWIDTH 480 0
DWIDTH 6 0
BBX 3 8 1 0
BITMAP
A0
00
E0
40
40
40
40
E0
ENDCHAR
STARTCHAR Upsilondieresis
ENCODING 219
SWIDTH 480 0
DWIDTH 6 0
BBX 5 8 0 0
BITMAP
50
00
88
50
20
20
20
20
ENDCHAR
STARTCHAR alphatonos
ENCODING 220
SWIDTH 480 0
DWIDTH 6 0
BBX 5 8 0 0
BITMAP
10
20
00
78
88
88
98
68
ENDCHAR
STARTCHAR epsilontonos
ENCODING 221
SWIDTH 480 0
DWIDTH 6 0
BBX 4 8 0 0
BITMAP
20
40
00
70
80
60
80
70
ENDCHAR
STARTCHAR etatonos
ENCODING 222
SWIDTH 480 0
DWIDTH 6 0
BBX 5 11 0 -3
BITMAP
10
20
00
F0
48
48
48
48
08
08
08
ENDCHAR
STARTCHAR iotatonos
ENCODING 223
SWIDTH 480 0
DWIDTH 6 0
BBX 3 8 1 0
BITMAP
40
80
00
C0
40
40
40
60
ENDCHAR
STARTCHAR upsilondieresistonos
ENCODING 224
SWIDTH 480 0
DWIDTH 6 0
BBX 4 9 0 0
BITMAP
20
40
90
00
90
90
90
90
60
ENDCHAR
STARTCHAR alpha
ENCODING 225
SWIDTH 480 0
DWIDTH 6 0
BBX 5 5 0 0
BITMAP
78
88
88
98
68
ENDCHAR
STARTCHAR beta
ENCODING 226
SWIDTH 480 0
DWIDTH 6 0
BBX 4 9 1 -1
BITMAP
40
A0
A0
E0
90
90
90
E0
80
ENDCHAR
STARTCHAR gamma
ENCODING 227
SWIDTH 480 0
DWIDTH 6 0
BBX 5 8 0 -3
BITMAP
88
88
50
50
20
20
20
20
ENDCHAR
STARTCHAR delta
ENCODING 228
SWIDTH 480 0
DWIDTH 6 0
BBX 4 8 0 0
BITMAP
60
80
40
60
90
90
90
60
ENDCHAR
STARTCHAR epsilon
ENCODING 229
SWIDTH 480 0
DWIDTH 6 0
BBX 4 5 0 0
BITMAP
70
80
60
80
70
ENDCHAR
STARTCHAR zeta
ENCODING 230
SWIDTH 480 0
DWIDTH 6 0
BBX 4 10 0 -2
BITMAP
F0
20
40
80
80
80
80
60
10
60
ENDCHAR
STARTCHAR eta
ENCODING 231
SWIDTH 480 0
DWIDTH 6 0
BBX 5 8 0 -3
BITMAP
F0
48
48
48
48
08
08
08
ENDCHAR
STARTCHAR theta
ENCODING 232
SWIDTH 480 0
DWIDTH 6 0
BBX 4 8 0 0
BITMAP
60
90
90
F0
90
90
90
60
ENDCHAR
STARTCHAR iota
ENCODING 233
SWIDTH 480 0
DWIDTH 6 0
BBX 3 5 1 0
BITMAP
C0
40
40
40
60
ENDCHAR
STARTCHAR kappa
ENCODING 234
SWIDTH 480 0
DWIDTH 6 0
BBX 4 5 1 0
BITMAP
90
A0
E0
90
90
ENDCHAR
STARTCHAR lambda
ENCODING 235
SWIDTH 480 0
DWIDTH 6 0
BBX 5 8 0 0
BITMAP
40
20
20
20
50
90
88
88
ENDCHAR
STARTCHAR uni03BC
ENCODING 236
SWIDTH 480 0
DWIDTH 6 0
BBX 5 7 0 -2
BITMAP
90
90
90
90
E8
80
80
ENDCHAR
STARTCHAR nu
ENCODING 237
SWIDTH 480 0
DWIDTH 6 0
BBX 5 5 0 0
BITMAP
C8
48
48
30
20
ENDCHAR
STARTCHAR xi
ENCODING 238
SWIDTH 480 0
DWIDTH 6 0
BBX 4 11 0 -3
BITMAP
70
80
80
60
80
80
80
60
10
60
40
ENDCHAR
STARTCHAR omicron
ENCODING 239
SWIDTH 480 0
DWIDTH 6 0
BBX 5 5 0 0
BITMAP
70
88
88
88
70
ENDCHAR
STARTCHAR pi
ENCODING 240
SWIDTH 480 0
DWIDTH 6 0
BBX 4 5 0 0
BITMAP
F0
90
90
90
90
ENDCHAR
STARTCHAR rho
ENCODING 241
SWIDTH 480 0
DWIDTH 6 0
BBX 5 8 0 -3
BITMAP
70
88
88
88
F0
80
80
80
ENDCHAR
STARTCHAR sigma1
ENCODING 242
SWIDTH 480 0
DWIDTH 6 0
BBX 4 8 0 -3
BITMAP
70
80
80
80
60
10
10
60
ENDCHAR
STARTCHAR sigma
ENCODING 243
SWIDTH 480 0
DWIDTH 6 0
BBX 5 5 0 0
BITMAP
78
90
88
88
70
ENDCHAR
STARTCHAR tau
ENCODING 244
SWIDTH 480 0
DWIDTH 6 0
BBX 4 5 1 0
BITMAP
F0
40
40
40
30
ENDCHAR
STARTCHAR upsilon
ENCODING 245
SWIDTH 480 0
DWIDTH 6 0
BBX 4 5 0 0
BITMAP
90
90
90
90
60
ENDCHAR
STARTCHAR phi
ENCODING 246
SWIDTH 480 0
DWIDTH 6 0
BBX 5 8 0 -3
BITMAP
30
A8
A8
A8
70
20
20
20
ENDCHAR
STARTCHAR chi
ENCODING 247
SWIDTH 480 0
DWIDTH 6 0
BBX 5 8 0 -3
BITMAP
88
48
50
20
20
50
90
88
ENDCHAR
STARTCHAR psi
ENCODING 248
SWIDTH 480 0
DWIDTH 6 0
BBX 5 8 0 -3
BITMAP
20
A8
A8
A8
70
20
20
20
ENDCHAR
STARTCHAR omega
ENCODING 249
SWIDTH 480 0
DWIDTH 6 0
BBX 5 5 0 0
BITMAP
50
88
A8
A8
50
ENDCHAR
STARTCHAR iotadieresis
ENCODING 250
SWIDTH 480 0
DWIDTH 6 0
BBX 3 7 1 0
BITMAP
A0
00
40
40
40
40
60
ENDCHAR
STARTCHAR upsilondieresis
ENCODING 251
SWIDTH 480 0
DWIDTH 6 0
BBX 4 7 0 0
BITMAP
A0
00
90
90
90
90
60
ENDCHAR
STARTCHAR omicrontonos
ENCODING 252
SWIDTH 480 0
DWIDTH 6 0
BBX 5 8 0 0
BITMAP
10
20
00
70
88
88
88
70
ENDCHAR
STARTCHAR upsilontonos
ENCODING 253
SWIDTH 480 0
DWIDTH 6 0
BBX 4 8 0 0
BITMAP
20
40
00
90
90
90
90
60
ENDCHAR
STARTCHAR omegatonos
ENCODING 254
SWIDTH 480 0
DWIDTH 6 0
BBX 5 8 0 0
BITMAP
10
20
00
50
88
A8
A8
50
ENDCHAR
STARTCHAR NameMe.255
ENCODING 255
SWIDTH 480 0
DWIDTH 6 0
BBX 1 1 4 0
BITMAP
00
ENDCHAR
ENDFONT
